<?xml version="1.0"?>
<svg width="64" height="64" xmlns="http://www.w3.org/2000/svg" xmlns:svg="http://www.w3.org/2000/svg">
 <g>
  <title>Layer 1</title>
  <g id="svg_1" stroke="null">
   <path d="m60.251572,10.07621c2.708237,17.83707 -0.248543,37.25528 -0.290131,37.55402c0.007458,-0.09473 0.073589,-1.490059 0.073589,-1.490059c0.868259,-11.98246 -1.24799,-18.740582 -1.24799,-18.740582c1.428261,10.366711 -1.207462,16.277779 -2.75304,18.740582c-0.579189,0.92173 -1.010132,1.70866 -1.010132,1.70866c-0.0448,0 -0.084259,-1.244152 -0.117329,-1.70866c-1.038921,-14.631062 3.879429,-33.267811 3.879429,-33.267811c-3.146637,4.77623 -5.05275,20.319908 -5.89114,28.872299c0.999462,-14.41247 -0.65279,-21.050369 -0.65279,-21.050369c0.65279,12.053501 -0.98666,21.94659 -1.674648,25.445881c-0.172802,0.88166 -0.287991,1.70866 -0.287991,1.70866c-0.07999,0 -0.15147,-1.207722 -0.21973,-1.70866c-1.18185,-8.7127 -0.598389,-30.196601 -0.598389,-30.196601c-1.173321,5.01121 -1.879452,15.3087 -2.25705,22.78271c0.00214,-12.67103 -2.324242,-20.2689 -2.324242,-20.2689c2.45438,16.204908 -0.81813,26.82118 -0.81813,26.82118c0.653862,-14.527231 -1.63625,-18.159491 -1.63625,-18.159491c1.69173,6.01309 -2.126911,17.882608 -2.126911,17.882608c-1.471989,-15.645689 2.126911,-37.719789 2.126911,-37.719789c-2.17918,5.24438 -3.458099,18.370801 -4.127949,27.91414c-0.071472,-12.12273 -3.035709,-16.738649 -3.035709,-16.738649c2.979168,12.293949 -0.03413,27.380411 -0.03413,27.380411c0.327469,-14.527231 -1.800522,-21.514881 -1.800522,-21.514881c0.26775,6.413839 -2.75943,17.88443 -3.860229,21.815441c-0.24213,0.86161 -0.393589,1.70866 -0.393589,1.70866c-0.062931,0 -0.11627,-1.225933 -0.165331,-1.70866c-1.09973,-10.79113 1.14665,-33.828872 1.14665,-33.828872c-2.574911,3.42096 -4.14929,27.75019 -4.50449,33.830691c-0.05121,0.876179 -0.076811,1.70866 -0.076811,1.70866c-0.014919,0 -0.032,-1.245972 -0.047989,-1.70866c-0.339201,-9.444981 -0.301861,-19.924622 -0.301861,-19.924622c-1.082661,2.029261 -1.935989,21.631462 -1.941311,21.631462l0.028791,-1.70866c0.703989,-24.407572 -1.828251,-32.429881 -1.828251,-32.429881c1.23946,11.99157 -0.9984,27.742911 -1.736509,32.429881c-0.13867,0.88348 -0.226141,1.70866 -0.226141,1.70866c-0.16214,0 -0.300798,-1.200432 -0.42239,-1.70866c-1.71838,-7.195313 0.42239,-23.770012 0.42239,-23.770012c-1.975449,4.3354 -2.65065,11.98975 -2.870378,17.71867c0.181339,-29.358669 -1.220261,-38.953009 -1.220261,-38.953009c1.007999,10.58711 -1.15732,38.50854 -1.68637,45.004359c-0.03094,0.38253 -0.02774,0.342461 0,0l-0.042681,0c0.39146,-9.88398 -1.54344,-27.680979 -1.54344,-27.680979c0,7.758181 -1.0432,23.03409 -1.372789,27.680979c-0.061871,0.874359 -0.0992,1.70866 -0.0992,1.70866c-0.16747,-0.57016 -0.24854,-1.238689 -0.35947,-1.70866c-2.49278,-12.647339 0.35947,-33.828869 0.35947,-33.828869c-3.79944,8.65258 -4.2101,28.460629 -4.24957,33.828869c-0.00319,0.413502 -0.00426,0.52644 0,0c0,0 0.19414,2.05476 -0.33812,0c-1.82506,-6.73444 0.43839,-27.680979 0.43839,-27.680979c-2.24211,4.069439 -3.1541,22.491251 -3.3557,27.680979c-0.03307,0.86525 -0.07466,1.70866 -0.07466,1.70866c-0.05547,0 -0.11627,-1.247799 -0.16214,-1.70866c-1.78024,-17.827969 3.49544,-37.574069 3.49544,-37.574069c-5.23409,5.58866 -6.58873,39.280902 -6.58873,39.280902l0,15.368809l63.999399,0l0,-17.075649l0,0c0.009602,-31.273161 -3.597828,-36.062141 -3.597828,-36.062141l-0.000019,0z" id="svg_2" stroke="null" style="fill:#339966"/>
  </g>
 </g>
</svg>